# xmcd
#
# Track frame offsets: 
#        150
#        10533
#        20723
#        33150
#        43928
#        54465
#        65700
#        83148
#        101275
#        114373
#        139478
#        153250
#        166025
#
# Disc length: 2515 seconds
#
# Revision: 1
# Processed by: cddbd v1.5.2PL0 Copyright (c) Steve Scherf et al.
# Submitted via: ExactAudioCopyFreeDBPlugin 1.0
#
DISCID=9d09d10d
DTITLE=Johnny Cash - Cash
DYEAR=1900
DGENRE=Country
TTITLE0=Delia´s gone
TTITLE1=Let the train blow the whistle
TTITLE2=The beast in me
TTITLE3=Drive on
TTITLE4=Why me Lord
TTITLE5=Thirteen
TTITLE6=Oh bury me not
TTITLE7=Bird on a wire
TTITLE8=Tennessee stud
TTITLE9=Down there by the train
TTITLE10=Redemption
TTITLE11=Like a Soldier
TTITLE12=The man who couldn´t cry
EXTD=
EXTT0=
EXTT1=
EXTT2=
EXTT3=
EXTT4=
EXTT5=
EXTT6=
EXTT7=
EXTT8=
EXTT9=
EXTT10=
EXTT11=
EXTT12=
PLAYORDER=
